<svg xmlns="http://www.w3.org/2000/svg" width="2718.024" height="570.386" viewBox="0 0 2718.024 570.386"><defs><style>.b4d7a217-67c7-4479-bf3f-b41f3fa9ca2b{fill:#fff;}</style></defs><g id="acac19a2-5ef8-40ab-a66c-04d32f7757ff" data-name="Layer 2"><g id="f54142df-9a0f-4360-b2a1-925ccf1f8ed2" data-name="Layer 1"><path class="b4d7a217-67c7-4479-bf3f-b41f3fa9ca2b" d="M726.74,203.56V159.81A159.811,159.811,0,0,1,566.93,0H523.18a522.766,522.766,0,0,1-25.7,162.4A279.652,279.652,0,0,1,445.81,0H402.06a400.489,400.489,0,0,1-38.69,172.29A400.475,400.475,0,0,1,324.68,0H280.93a279.652,279.652,0,0,1-51.671,162.4A522.766,522.766,0,0,1,203.56,0H159.81A159.811,159.811,0,0,1,0,159.81v43.75a203.383,203.383,0,0,0,170.674-92.6,562.629,562.629,0,0,0,25.74,89.878A280,280,0,0,1,0,280.93v43.75a323.428,323.428,0,0,0,214.663-81.109,566.045,566.045,0,0,0,38.751,68.58A400.384,400.384,0,0,1,0,402.06V445.8a443.926,443.926,0,0,0,278.966-98.053,570.114,570.114,0,0,0,51.6,57.784A521.009,521.009,0,0,1,0,523.18v43.75A564.633,564.633,0,0,0,363.37,435.176,564.633,564.633,0,0,0,726.74,566.93V523.18A521.009,521.009,0,0,1,396.176,405.531a570.235,570.235,0,0,0,51.6-57.784A443.924,443.924,0,0,0,726.74,445.8V402.06a400.379,400.379,0,0,1-253.413-89.909,566.038,566.038,0,0,0,38.75-68.58A323.43,323.43,0,0,0,726.74,324.68V280.93a279.994,279.994,0,0,1-196.413-80.1,562.73,562.73,0,0,0,25.739-89.878A203.383,203.383,0,0,0,726.74,203.56ZM427.606,126.454a324.686,324.686,0,0,0,51.655,83.694,521.991,521.991,0,0,1-38.739,72.208,403.95,403.95,0,0,1-51.614-64.285A443.077,443.077,0,0,0,427.606,126.454Zm-128.472,0a443.132,443.132,0,0,0,38.7,91.617,403.95,403.95,0,0,1-51.614,64.285,521.991,521.991,0,0,1-38.739-72.208A324.659,324.659,0,0,0,299.134,126.454ZM363.37,376.4a526.171,526.171,0,0,1-51.605-57.743,448.17,448.17,0,0,0,51.605-60.33,448.177,448.177,0,0,0,51.606,60.33A526.283,526.283,0,0,1,363.37,376.4Z"/><path class="b4d7a217-67c7-4479-bf3f-b41f3fa9ca2b" d="M989.672,8.21c41.442,0,75.357,19.158,95.445,49.291l-36.73,27.318c-11.619-19.779-32.972-32.34-59.025-32.34-41.764,0-71.587,32.03-71.587,73.782,0,41.442,29.823,73.782,71.587,73.782,25.743,0,47.1-12.561,59.025-32.34l36.73,27.008c-20.088,30.455-54,49.6-95.445,49.6-67.818,0-116.8-51.176-116.8-118.051S921.854,8.21,989.672,8.21"/><rect class="b4d7a217-67c7-4479-bf3f-b41f3fa9ca2b" x="1124.986" y="11.66" width="44.901" height="229.196"/><polygon class="b4d7a217-67c7-4479-bf3f-b41f3fa9ca2b" points="1276.631 55.62 1210.066 55.62 1210.066 11.661 1388.097 11.661 1388.097 55.62 1321.843 55.62 1321.843 240.856 1276.631 240.856 1276.631 55.62"/><polygon class="b4d7a217-67c7-4479-bf3f-b41f3fa9ca2b" points="1489.496 166.138 1411.001 11.667 1459.661 11.667 1512.412 115.594 1565.162 11.667 1613.201 11.667 1534.385 165.195 1534.385 240.862 1489.496 240.862 1489.496 166.138"/><path class="b4d7a217-67c7-4479-bf3f-b41f3fa9ca2b" d="M1822.921,200.043c43,0,73.15-32.018,73.15-73.782s-30.145-73.782-73.15-73.782c-42.694,0-73.161,32.03-73.161,73.782s30.467,73.782,73.161,73.782m0-191.833c68.76,0,118.362,51.486,118.362,118.051s-49.6,118.051-118.362,118.051S1704.87,192.826,1704.87,126.261,1754.161,8.21,1822.921,8.21"/><polygon class="b4d7a217-67c7-4479-bf3f-b41f3fa9ca2b" points="1987.435 11.663 2160.454 11.663 2160.454 55.622 2032.324 55.622 2032.324 103.661 2126.074 103.661 2126.074 147.608 2032.324 147.608 2032.324 240.859 1987.435 240.859 1987.435 11.663"/><polygon class="b4d7a217-67c7-4479-bf3f-b41f3fa9ca2b" points="1052.15 337.734 990.297 470.232 927.514 337.734 882.922 337.734 882.922 566.93 927.191 566.93 927.191 435.387 989.987 569.447 1051.84 435.387 1051.84 566.93 1096.741 566.93 1096.741 337.734 1052.15 337.734"/><path class="b4d7a217-67c7-4479-bf3f-b41f3fa9ca2b" d="M1232.042,403.989l28.26,86.964h-56.508Zm-22.284-66.255-75.344,229.2h44.579l10.677-32.65h84.768l10.677,32.65h45.522l-74.725-229.2Z"/><polygon class="b4d7a217-67c7-4479-bf3f-b41f3fa9ca2b" points="1509.279 337.734 1509.279 487.493 1413.201 337.734 1368.622 337.734 1368.622 566.93 1413.201 566.93 1413.201 417.171 1509.279 566.93 1553.56 566.93 1553.56 337.734 1509.279 337.734"/><path class="b4d7a217-67c7-4479-bf3f-b41f3fa9ca2b" d="M1656.211,522.984h31.4c40.821,0,70.012-30.145,70.012-70.335S1728.43,381.7,1687.609,381.7h-31.4Zm146.312-70.335c0,64.991-48.039,114.282-114.592,114.282h-76.622v-229.2h76.622c66.553,0,114.592,49.923,114.592,114.913"/><path class="b4d7a217-67c7-4479-bf3f-b41f3fa9ca2b" d="M2032.023,480.6c0,51.486-39.557,89.791-91.365,89.791-53.682,0-91.986-39.247-91.986-89.791V337.743h44.889V478.4c0,27,19.469,47.717,47.1,47.717,27.318,0,46.786-20.721,46.786-47.717V337.743h44.579Z"/><path class="b4d7a217-67c7-4479-bf3f-b41f3fa9ca2b" d="M2133.12,455.167h53.061c21.973,0,37.052-15.389,37.052-36.742,0-21.664-15.079-36.73-36.742-36.73H2133.12Zm42.074,43.637H2133.12v68.127h-44.9v-229.2h97.331c48.361,0,82.573,33.914,82.573,80.689,0,32.65-17.261,59.657-44.579,72.219l48.981,76.287h-52.75Z"/><path class="b4d7a217-67c7-4479-bf3f-b41f3fa9ca2b" d="M2398.086,403.989l28.273,86.964H2369.85Zm-22.271-66.255-75.357,229.2h44.591l10.665-32.65h84.769l10.676,32.65h45.522l-74.724-229.2Z"/><polygon class="b4d7a217-67c7-4479-bf3f-b41f3fa9ca2b" points="2673.134 337.734 2673.134 429.732 2579.562 429.732 2579.562 337.734 2534.672 337.734 2534.672 566.93 2579.562 566.93 2579.562 473.691 2673.134 473.691 2673.134 566.93 2718.024 566.93 2718.024 337.734 2673.134 337.734"/></g></g></svg>