<svg width="279" height="221" viewBox="0 0 279 221" fill="none" xmlns="http://www.w3.org/2000/svg">
<path d="M45.4244 35.9059C46.5377 36.0271 47.6641 35.9041 48.7247 35.5454C72.4178 27.8909 97.992 28.3062 121.422 36.726C122.553 37.1406 123.457 35.8248 122.462 35.2299C108.185 26.7744 91.9222 22.2234 75.3158 22.0367C58.7095 21.85 42.3478 26.0341 27.8829 34.1665C26.7436 34.8334 27.4489 36.3385 28.7871 36.1402C31.8595 35.6975 34.9598 35.4746 38.0642 35.4733C40.5239 35.4745 42.9815 35.6189 45.4244 35.9059Z" fill="#AAC27E"/>
<path d="M46.0756 40.5744C38.3598 39.7537 30.5652 40.0573 22.9371 41.4756C14.8958 42.8694 7.21219 45.8409 0.332085 50.2177C-0.572115 50.8215 0.531008 51.7859 1.71551 51.4073C12.3011 48.1471 23.323 46.5122 34.4024 46.5586C50.678 46.5586 65.7419 49.9203 77.9848 55.5711C79.2688 56.1659 80.8421 55.1746 79.9379 54.3454C72.1708 47.1895 60.0545 42.0794 46.0756 40.5744Z" fill="#AAC27E"/>
<path d="M239.086 36.6449C237.973 36.7648 236.848 36.6449 235.786 36.2934C212.094 28.6298 186.518 29.042 163.088 37.4651C161.958 37.8797 161.053 36.5638 162.048 35.978C176.326 27.5238 192.589 22.9745 209.196 22.7893C225.802 22.6042 242.163 26.7898 256.627 34.9236C257.767 35.5815 257.061 37.0956 255.723 36.8973C252.651 36.4501 249.551 36.2272 246.446 36.2304C243.987 36.2301 241.53 36.3685 239.086 36.6449Z" fill="#AAC27E"/>
<path d="M231.536 41.1151C234.389 40.8101 237.256 40.6567 240.126 40.6555C245.006 40.6503 249.877 41.0968 254.674 41.9893C262.715 43.3861 270.398 46.3574 277.279 50.7314C278.184 51.3443 277.089 52.2996 275.905 51.9301C265.317 48.6648 254.292 47.0298 243.209 47.0814C226.933 47.0814 211.87 50.443 199.627 56.1389C198.352 56.7337 196.769 55.7423 197.674 54.9042C205.432 47.7303 217.53 42.6202 231.536 41.1151Z" fill="#AAC27E"/>
<path d="M147.979 55.7964C134.741 50.2087 171.271 51.128 173.188 44.3146C174.861 38.3754 143.404 37.8887 129.316 37.7265C129.199 37.731 129.087 37.7784 129.002 37.8598C128.918 37.9411 128.866 38.0506 128.857 38.1675C128.848 38.2844 128.882 38.4004 128.954 38.4936C129.025 38.5868 129.128 38.6506 129.244 38.6728C131.459 38.853 149.272 38.9161 154.842 42.2778C163.377 47.3788 102.742 45.5493 102.678 52.0563C102.633 57.0131 127.264 62.2313 122.914 65.1514C120.084 67.053 103.338 69.6576 91.7557 71.8386C91.6095 71.8641 91.4783 71.9439 91.3887 72.0618C91.299 72.1797 91.2575 72.3271 91.2724 72.4744C91.2873 72.6216 91.3575 72.7577 91.4689 72.8554C91.5804 72.9532 91.7248 73.0052 91.8732 73.0012H190.612C190.733 73.0034 190.85 72.9633 190.944 72.8878C191.039 72.8124 191.103 72.7064 191.127 72.5883C191.15 72.4703 191.132 72.3477 191.074 72.242C191.016 72.1362 190.923 72.0541 190.811 72.0098C176.398 66.0075 163.911 62.5017 147.979 55.7964Z" fill="#427BBF"/>
<path d="M278.202 73.2625H196.769C196.567 73.2413 196.38 73.1462 196.244 72.9956C196.108 72.845 196.033 72.6495 196.033 72.4469C196.033 72.2442 196.108 72.0488 196.244 71.8982C196.38 71.7476 196.567 71.6525 196.769 71.6313H278.202C278.404 71.6525 278.591 71.7476 278.727 71.8982C278.863 72.0488 278.938 72.2442 278.938 72.4469C278.938 72.6495 278.863 72.845 278.727 72.9956C278.591 73.1462 278.404 73.2413 278.202 73.2625Z" fill="#AAC27E"/>
<path d="M85.9597 73.2625H1.08239C0.967701 73.2746 0.851765 73.2624 0.742084 73.2269C0.632404 73.1914 0.531431 73.1333 0.445725 73.0564C0.360019 72.9795 0.291487 72.8855 0.244578 72.7805C0.197669 72.6755 0.173427 72.5618 0.173427 72.4469C0.173427 72.332 0.197669 72.2183 0.244578 72.1133C0.291487 72.0083 0.360019 71.9143 0.445725 71.8374C0.531431 71.7605 0.632404 71.7024 0.742084 71.6669C0.851765 71.6314 0.967701 71.6192 1.08239 71.6313H85.9597C86.0743 71.6192 86.1903 71.6314 86.3 71.6669C86.4097 71.7024 86.5106 71.7605 86.5963 71.8374C86.682 71.9143 86.7506 72.0083 86.7975 72.1133C86.8444 72.2183 86.8686 72.332 86.8686 72.4469C86.8686 72.5618 86.8444 72.6755 86.7975 72.7805C86.7506 72.8855 86.682 72.9795 86.5963 73.0564C86.5106 73.1333 86.4097 73.1914 86.3 73.2269C86.1903 73.2624 86.0743 73.2746 85.9597 73.2625Z" fill="#AAC27E"/>
<path d="M4.57225 111.782H0.0512462V103.725H4.11111L4.64458 107.888C5.90206 108.322 7.23045 108.515 8.55976 108.456C11.8149 108.456 13.2345 106.969 13.2345 104.635C13.2345 101.544 9.93415 101.201 6.21788 100.129C2.65534 99.1012 0.394847 97.0013 0.394847 92.5672C0.394847 87.4932 3.9574 84.7444 9.62674 84.7444C10.9861 84.7276 12.3443 84.8271 13.6866 85.0418H17.9092V92.3419H13.9217L13.3882 88.827C12.2559 88.4337 11.0602 88.2534 9.86181 88.2953C7.02262 88.2953 5.44931 89.4399 5.44931 91.729C5.44931 94.5139 8.25233 95.1267 11.4713 95.9649C16.2997 97.2266 18.7049 98.9119 18.7049 103.68C18.7049 109.141 15.2147 112.088 8.70443 112.088C7.32123 112.091 5.93986 111.988 4.57225 111.782Z" fill="#8C847D"/>
<path d="M33.5432 108.609H35.8399V98.3352C35.8399 96.3524 35.0713 95.7756 33.1996 95.7756C31.6975 95.7984 30.2085 96.057 28.7871 96.5417V108.609H31.1199V111.782H20.9025V108.609H22.2407C22.4849 108.581 22.7123 108.471 22.8862 108.297C23.0601 108.124 23.1703 107.897 23.1991 107.654V89.3587C23.172 89.1073 23.064 88.8714 22.8913 88.6862C22.7185 88.5011 22.4903 88.3766 22.2407 88.3313H20.7849V85.0418H27.8286C28.4435 85.0418 28.7871 85.5014 28.7871 86.3486V94.2886C30.8125 92.426 33.473 91.4014 36.2287 91.4226C39.0226 91.4226 41.4369 92.5311 41.4369 96.4245V107.654C41.4591 107.9 41.5673 108.13 41.7424 108.305C41.9176 108.479 42.1486 108.587 42.3953 108.609H43.4623V111.782H33.5161L33.5432 108.609Z" fill="#8C847D"/>
<path d="M45.2254 108.609H46.6902C46.9271 108.576 47.1455 108.463 47.3098 108.289C47.474 108.116 47.5744 107.892 47.5944 107.654V96.1181C47.5944 95.7035 47.1333 95.0907 46.6902 95.0907H45.0808V91.729H52.3144C52.9292 91.729 53.2186 92.3419 53.2186 93.865V107.654C53.2408 107.9 53.349 108.13 53.5241 108.305C53.6993 108.479 53.9303 108.587 54.177 108.609H55.6328V111.782H45.2254V108.609ZM47.3413 87.2228C47.3251 86.6221 47.4891 86.0302 47.8123 85.523C48.1356 85.0157 48.6033 84.6162 49.1557 84.3754C49.7081 84.1347 50.32 84.0637 50.9131 84.1716C51.5062 84.2795 52.0536 84.5614 52.485 84.9811C52.9165 85.4008 53.2124 85.9394 53.335 86.5278C53.4576 87.1161 53.4013 87.7276 53.1732 88.2838C52.9451 88.8401 52.5557 89.3159 52.0548 89.6503C51.5539 89.9847 50.9642 90.1625 50.3613 90.1609C49.9688 90.168 49.5788 90.0975 49.2138 89.9532C48.8489 89.809 48.5164 89.594 48.2354 89.3207C47.9545 89.0474 47.7308 88.7213 47.5773 88.3611C47.4238 88.001 47.3436 87.6141 47.3413 87.2228Z" fill="#8C847D"/>
<path d="M57.3417 108.609H58.68C58.9242 108.581 59.1516 108.471 59.3255 108.297C59.4994 108.124 59.6096 107.897 59.6384 107.654V96.1181C59.6113 95.8667 59.5033 95.6308 59.3305 95.4456C59.1578 95.2604 58.9296 95.1359 58.68 95.0907H57.188V91.729H64.0419C64.6929 91.729 65.1179 92.3058 65.1992 94.631C66.5374 92.9908 68.1107 91.5398 70.751 91.5398C71.168 91.5426 71.5823 91.6064 71.9807 91.729V95.8568H71.0223C69.0208 95.7641 67.0288 96.1829 65.2354 97.0734V108.609H68.0294V111.782H57.3417V108.609Z" fill="#8C847D"/>
<path d="M78.7984 102.805C79.0245 106.78 80.7877 108.609 84.0066 108.609C84.8699 108.685 85.7375 108.523 86.5142 108.139C87.291 107.756 87.9469 107.167 88.4101 106.437H91.5929V110.096C89.9472 111.097 87.7591 112.043 83.5455 112.043C76.5741 112.043 73.0839 108.15 73.0839 101.85C73.0839 95.3971 77.1076 91.4226 83.1657 91.4226C89.2239 91.4226 92.3253 94.4778 92.3253 101.282C92.3253 101.967 92.2439 102.616 92.2439 102.805H78.7984ZM78.8708 99.633H86.7283C86.5384 96.1181 85.4624 94.7482 83.1657 94.7482C80.869 94.7482 79.2957 96.1992 78.8708 99.633Z" fill="#8C847D"/>
<path d="M101.901 101.85C101.901 95.3971 106.612 91.4226 112.48 91.4226C118.348 91.4226 123.05 95.3971 123.05 101.85C123.05 108.303 118.339 112.043 112.48 112.043C106.621 112.043 101.901 108.267 101.901 101.85ZM117.381 101.85C117.381 97.3438 115.274 95.0546 112.48 95.0546C109.686 95.0546 107.57 97.3077 107.57 101.85C107.57 106.392 109.677 108.501 112.48 108.501C115.283 108.501 117.381 106.392 117.381 101.886V101.85Z" fill="#8C847D"/>
<path d="M124.623 91.729H126.965V90.1969C126.965 86.3847 129.379 84.6633 133.295 84.6633C134.431 84.6219 135.564 84.8025 136.631 85.195V88.3314H135.329C133.647 88.3314 132.535 88.5206 132.535 90.3952V91.729H136.36V95.0907H132.535V107.654C132.557 107.9 132.665 108.13 132.841 108.305C133.016 108.479 133.247 108.587 133.493 108.609H135.257V111.782H124.777V108.609H126.061C126.305 108.581 126.533 108.471 126.706 108.297C126.88 108.124 126.991 107.897 127.019 107.654V95.0907H124.641L124.623 91.729Z" fill="#8C847D"/>
<path d="M159.381 111.782L152.979 88.8992H152.862V108.609H155.574V111.782H145.953V108.609H147.409C147.702 108.569 147.972 108.43 148.175 108.215C148.377 108 148.499 107.723 148.521 107.429V89.5121C148.499 89.2182 148.377 88.9407 148.175 88.7259C147.972 88.511 147.702 88.3718 147.409 88.3314H145.953V85.0419H157.256L162.319 103.067H162.437L167.528 85.0419H178.758V88.3314H177.239C176.946 88.3718 176.676 88.511 176.473 88.7259C176.271 88.9407 176.149 89.2182 176.127 89.5121V107.429C176.149 107.723 176.271 108 176.473 108.215C176.676 108.43 176.946 108.569 177.239 108.609H178.731V111.782H167.501V108.609H170.15V88.8992H170.032L163.522 111.782H159.381Z" fill="#8C847D"/>
<path d="M182.293 107.086V96.046C182.264 95.8026 182.154 95.5759 181.98 95.4026C181.806 95.2293 181.579 95.1194 181.335 95.0907H180.033V91.7291H187.89V105.365C187.89 107.537 188.957 108.15 190.72 108.15C192.175 108.095 193.607 107.771 194.943 107.194V95.0907H192.294V91.7291H200.531V107.582C200.558 107.833 200.666 108.069 200.839 108.254C201.011 108.44 201.24 108.564 201.489 108.609H202.791V111.782H196.127C195.476 111.782 195.133 111.286 194.979 109.294C194.014 110.217 192.871 110.936 191.621 111.408C190.37 111.88 189.037 112.096 187.7 112.043C184.897 112.043 182.293 110.98 182.293 107.086Z" fill="#8C847D"/>
<path d="M204.555 108.609H205.902C206.145 108.579 206.372 108.469 206.546 108.296C206.719 108.123 206.83 107.897 206.86 107.654V96.1181C206.83 95.8677 206.721 95.6333 206.549 95.4486C206.377 95.2639 206.15 95.1386 205.902 95.0907H204.401V91.729H211.264C211.915 91.729 212.34 92.3058 212.412 94.631C213.75 92.9908 215.324 91.5398 217.964 91.5398C218.381 91.5419 218.795 91.6056 219.194 91.729V95.8568H218.235C216.234 95.7641 214.242 96.1829 212.448 97.0734V108.609H215.251V111.782H204.555V108.609Z" fill="#8C847D"/>
<path d="M221.074 108.609H222.413C222.657 108.581 222.884 108.471 223.058 108.297C223.232 108.124 223.342 107.897 223.371 107.654V96.1181C223.344 95.8667 223.236 95.6308 223.063 95.4456C222.89 95.2604 222.662 95.1359 222.413 95.0907H220.921V91.729H227.774C228.425 91.729 228.85 92.3058 228.923 94.631C230.27 92.9908 231.834 91.5398 234.484 91.5398C234.901 91.5433 235.315 91.607 235.713 91.729V95.8568H234.755C232.753 95.7641 230.761 96.1829 228.968 97.0734V108.609H231.762V111.782H221.074V108.609Z" fill="#8C847D"/>
<path d="M236.744 105.978C236.744 101.769 240.035 99.8672 244.674 99.8672C246.056 99.8442 247.436 99.9987 248.779 100.327V98.227C248.779 96.1992 247.667 95.2439 245.289 95.2439C244.433 95.2162 243.581 95.3616 242.784 95.6714C241.987 95.9812 241.261 96.449 240.65 97.0463H238.082V92.9637C240.711 91.8576 243.549 91.3348 246.401 91.4316C251.609 91.4316 254.367 93.1169 254.367 97.7403V107.708C254.402 107.95 254.521 108.172 254.702 108.336C254.884 108.501 255.117 108.597 255.362 108.609H256.438V111.313C255.4 111.858 254.236 112.119 253.065 112.07C250.732 112.07 249.539 111.169 249.041 109.556C248.342 110.405 247.448 111.074 246.434 111.505C245.42 111.937 244.317 112.118 243.218 112.034C239.43 112.007 236.744 109.943 236.744 105.978ZM248.779 107.312V103.031C247.802 102.872 246.812 102.797 245.822 102.805C243.562 102.805 242.205 103.707 242.205 105.743C242.205 107.78 243.39 108.726 245.271 108.726C246.579 108.724 247.836 108.217 248.779 107.312Z" fill="#8C847D"/>
<path d="M259.964 117.982V115.044C262.087 114.447 263.979 113.221 265.389 111.529L258.761 96.2082C258.49 95.5593 258.11 95.1357 257.568 95.1357H256.844V91.7741H266.574V95.1357H263.951L268.283 105.482L271.501 97.6592C272.071 96.2082 272.261 95.1357 270.597 95.1357H269.982V91.7741H278.835V95.1357H277.967C277.647 95.1815 277.348 95.3168 277.103 95.5258C276.858 95.7349 276.678 96.009 276.583 96.3164L269.991 111.097C268.865 113.875 266.964 116.274 264.512 118.009L259.964 117.982Z" fill="#8C847D"/>
<path d="M7.21293 19.8728C13.253 20.4946 17.774 20.9543 63.3457 7.80509C80.117 3.20678 97.6474 2.0327 114.885 4.35332C135.202 7.05706 146.704 15.3485 158.657 15.6369C164.444 15.7721 174.083 13.4289 180.666 10.0312C190.078 5.17346 198.234 6.16483 206.435 9.07585C212.937 11.392 220.903 12.6808 231.861 9.97709C242.82 7.27336 248.426 11.2208 254.928 13.1405C261.429 15.0601 265.543 15.9523 270.832 14.8618C272.885 14.4292 276.484 12.2122 278.437 10.9234C278.517 10.8609 278.577 10.7755 278.608 10.6786C278.639 10.5817 278.64 10.4777 278.611 10.3803C278.581 10.2828 278.523 10.1965 278.444 10.1326C278.364 10.0687 278.267 10.0302 278.166 10.0222C276.357 10.0222 272.74 9.93203 266.411 9.76079C249.783 9.31918 250.877 7.05706 239.113 7.12916C227.35 7.20126 224.782 9.73376 208.533 5.72322C192.285 1.71268 177.266 11.2298 155.185 9.38227C133.105 7.53472 116.368 -2.83861 80.9052 0.748341C45.4425 4.3353 37.1239 8.56214 1.03724 11.9869C-1.66631 12.2212 1.17288 19.2509 7.21293 19.8728Z" fill="#9BC1E7"/>
<path d="M33.2209 160.26C34.0351 160.348 34.8589 160.258 35.6345 159.996C52.9624 154.398 71.6659 154.702 88.8016 160.859C89.6282 161.163 90.2895 160.2 89.5621 159.765C79.1205 153.581 67.2268 150.253 55.0818 150.116C42.9369 149.98 30.9709 153.04 20.392 158.987C19.5588 159.475 20.0746 160.576 21.0533 160.431C23.3003 160.107 25.5677 159.944 27.838 159.943C29.637 159.944 31.4343 160.05 33.2209 160.26Z" fill="#AAC27E"/>
<path d="M33.6971 163.674C28.0542 163.074 22.3537 163.296 16.7749 164.333C10.894 165.352 5.27459 167.525 0.242869 170.726C-0.418413 171.168 0.38835 171.873 1.25463 171.596C8.99636 169.212 17.0572 168.016 25.16 168.05C37.063 168.05 48.08 170.509 57.0337 174.642C57.9728 175.077 59.1234 174.352 58.4621 173.745C52.7817 168.512 43.9205 164.775 33.6971 163.674Z" fill="#AAC27E"/>
<path d="M174.854 160.8C174.04 160.888 173.217 160.8 172.44 160.543C155.114 154.938 136.409 155.24 119.273 161.4C118.447 161.703 117.786 160.741 118.513 160.312C128.955 154.129 140.849 150.802 152.994 150.667C165.139 150.531 177.105 153.593 187.683 159.541C188.516 160.022 188 161.13 187.022 160.985C184.775 160.658 182.507 160.495 180.237 160.497C178.438 160.497 176.641 160.598 174.854 160.8Z" fill="#AAC27E"/>
<path d="M169.332 164.069C171.419 163.846 173.516 163.734 175.615 163.733C179.184 163.729 182.746 164.056 186.255 164.709C192.135 165.73 197.754 167.903 202.787 171.102C203.448 171.55 202.648 172.249 201.782 171.979C194.038 169.591 185.975 168.395 177.87 168.433C165.967 168.433 154.95 170.891 145.996 175.057C145.063 175.492 143.906 174.767 144.567 174.154C150.241 168.907 159.089 165.17 169.332 164.069Z" fill="#AAC27E"/>
<path d="M108.223 174.806C98.5423 170.72 125.258 171.392 126.66 166.409C127.883 162.066 104.877 161.71 94.5746 161.591C94.4887 161.594 94.407 161.629 94.345 161.688C94.2831 161.748 94.2452 161.828 94.2387 161.913C94.2322 161.999 94.2574 162.084 94.3096 162.152C94.3618 162.22 94.4373 162.267 94.5217 162.283C96.1419 162.415 109.169 162.461 113.243 164.92C119.485 168.65 75.1396 167.312 75.0933 172.071C75.0602 175.696 93.0735 179.512 89.8928 181.648C87.8229 183.039 75.576 184.944 67.105 186.539C66.9981 186.557 66.9022 186.616 66.8366 186.702C66.771 186.788 66.7406 186.896 66.7515 187.004C66.7624 187.111 66.8138 187.211 66.8953 187.282C66.9768 187.354 67.0824 187.392 67.191 187.389H139.403C139.491 187.391 139.577 187.361 139.646 187.306C139.715 187.251 139.762 187.173 139.779 187.087C139.797 187.001 139.783 186.911 139.741 186.834C139.699 186.756 139.631 186.696 139.548 186.664C129.008 182.274 119.875 179.71 108.223 174.806Z" fill="#427BBF"/>
<path d="M203.461 187.58H143.906C143.758 187.565 143.621 187.495 143.522 187.385C143.423 187.275 143.367 187.132 143.367 186.984C143.367 186.835 143.423 186.692 143.522 186.582C143.621 186.472 143.758 186.403 143.906 186.387H203.461C203.609 186.403 203.746 186.472 203.845 186.582C203.945 186.692 204 186.835 204 186.984C204 187.132 203.945 187.275 203.845 187.385C203.746 187.495 203.609 187.565 203.461 187.58Z" fill="#AAC27E"/>
<path d="M62.8661 187.58H0.791602C0.707727 187.589 0.622938 187.58 0.542724 187.554C0.462509 187.528 0.388663 187.486 0.325983 187.429C0.263302 187.373 0.213182 187.304 0.178875 187.228C0.144569 187.151 0.126839 187.068 0.126839 186.984C0.126839 186.9 0.144569 186.816 0.178875 186.74C0.213182 186.663 0.263302 186.594 0.325983 186.538C0.388663 186.482 0.462509 186.439 0.542724 186.413C0.622938 186.387 0.707727 186.378 0.791602 186.387H62.8661C62.95 186.378 63.0348 186.387 63.115 186.413C63.1952 186.439 63.2691 186.482 63.3317 186.538C63.3944 186.594 63.4445 186.663 63.4788 186.74C63.5131 186.816 63.5309 186.9 63.5309 186.984C63.5309 187.068 63.5131 187.151 63.4788 187.228C63.4445 187.304 63.3944 187.373 63.3317 187.429C63.2691 187.486 63.1952 187.528 63.115 187.554C63.0348 187.58 62.95 187.589 62.8661 187.58Z" fill="#AAC27E"/>
<path d="M3.3439 215.751H0.0374893V209.858H3.00665L3.3968 212.904C4.31645 213.221 5.28796 213.362 6.26014 213.319C8.64076 213.319 9.67898 212.231 9.67898 210.524C9.67898 208.263 7.26529 208.013 4.54742 207.229C1.94198 206.477 0.28878 204.941 0.28878 201.698C0.28878 197.988 2.89423 195.977 7.04047 195.977C8.03461 195.965 9.02796 196.038 10.0096 196.195H13.0978V201.534H10.1816L9.7914 198.963C8.96331 198.675 8.0888 198.544 7.21239 198.574C5.13596 198.574 3.98533 199.411 3.98533 201.085C3.98533 203.122 6.03531 203.57 8.38947 204.183C11.9207 205.106 13.6797 206.339 13.6797 209.825C13.6797 213.82 11.1272 215.975 6.36595 215.975C5.35435 215.977 4.34409 215.902 3.3439 215.751Z" fill="#8C847D"/>
<path d="M24.5316 213.431H26.2113V205.917C26.2113 204.467 25.6492 204.045 24.2803 204.045C23.1818 204.062 22.0928 204.251 21.0533 204.605V213.431H22.7594V215.751H15.2869V213.431H16.2656C16.4442 213.41 16.6105 213.329 16.7377 213.203C16.8649 213.076 16.9455 212.91 16.9666 212.732V199.352C16.9467 199.168 16.8678 198.996 16.7414 198.86C16.6151 198.725 16.4482 198.634 16.2656 198.601H15.201V196.195H20.3523C20.802 196.195 21.0533 196.531 21.0533 197.151V202.957C22.5346 201.595 24.4803 200.846 26.4956 200.861C28.539 200.861 30.3046 201.672 30.3046 204.519V212.732C30.3209 212.912 30.4 213.08 30.5281 213.208C30.6562 213.336 30.8252 213.415 31.0056 213.431H31.7859V215.751H24.5118L24.5316 213.431Z" fill="#8C847D"/>
<path d="M33.0753 213.431H34.1466C34.3199 213.406 34.4796 213.324 34.5997 213.197C34.7198 213.07 34.7932 212.906 34.8079 212.732V204.295C34.8079 203.992 34.4706 203.544 34.1466 203.544H32.9695V201.085H38.2598C38.7095 201.085 38.9211 201.534 38.9211 202.648V212.732C38.9374 212.912 39.0165 213.08 39.1445 213.208C39.2726 213.336 39.4416 213.415 39.622 213.431H40.6867V215.751H33.0753V213.431ZM34.6227 197.79C34.6109 197.351 34.7308 196.918 34.9672 196.547C35.2036 196.176 35.5457 195.884 35.9497 195.707C36.3537 195.531 36.8012 195.48 37.235 195.558C37.6688 195.637 38.069 195.843 38.3846 196.15C38.7001 196.457 38.9166 196.851 39.0062 197.282C39.0959 197.712 39.0547 198.159 38.8879 198.566C38.7211 198.973 38.4363 199.321 38.0699 199.565C37.7036 199.81 37.2723 199.94 36.8314 199.939C36.5444 199.944 36.2591 199.892 35.9922 199.787C35.7254 199.681 35.4821 199.524 35.2767 199.324C35.0712 199.124 34.9076 198.886 34.7954 198.622C34.6831 198.359 34.6244 198.076 34.6227 197.79Z" fill="#8C847D"/>
<path d="M41.9366 213.431H42.9153C43.0939 213.41 43.2602 213.33 43.3874 213.203C43.5145 213.076 43.5952 212.91 43.6162 212.732V204.295C43.5964 204.112 43.5174 203.939 43.3911 203.804C43.2647 203.668 43.0978 203.577 42.9153 203.544H41.8241V201.086H46.8367C47.3128 201.086 47.6236 201.507 47.6831 203.208C48.6618 202.008 49.8124 200.947 51.7434 200.947C52.0483 200.949 52.3513 200.996 52.6427 201.086V204.104H51.9418C50.478 204.037 49.0212 204.343 47.7096 204.994V213.431H49.7529V215.751H41.9366V213.431Z" fill="#8C847D"/>
<path d="M57.6288 209.186C57.7941 212.093 59.0836 213.431 61.4377 213.431C62.0691 213.486 62.7036 213.367 63.2717 213.087C63.8398 212.807 64.3194 212.376 64.6582 211.842H66.9859V214.518C65.7824 215.25 64.1821 215.942 61.1005 215.942C56.002 215.942 53.4495 213.095 53.4495 208.487C53.4495 203.768 56.3922 200.861 60.8228 200.861C65.2533 200.861 67.5215 203.096 67.5215 208.072C67.5215 208.573 67.462 209.048 67.462 209.186H57.6288ZM57.6817 206.866H63.4282C63.2893 204.295 62.5024 203.294 60.8228 203.294C59.1431 203.294 57.9925 204.355 57.6817 206.866Z" fill="#8C847D"/>
<path d="M74.5245 208.487C74.5245 203.768 77.9698 200.861 82.2615 200.861C86.5532 200.861 89.9919 203.768 89.9919 208.487C89.9919 213.207 86.5466 215.942 82.2615 215.942C77.9764 215.942 74.5245 213.18 74.5245 208.487ZM85.8457 208.487C85.8457 205.192 84.3049 203.518 82.2615 203.518C80.2182 203.518 78.6708 205.165 78.6708 208.487C78.6708 211.809 80.2116 213.352 82.2615 213.352C84.3115 213.352 85.8457 211.809 85.8457 208.514V208.487Z" fill="#8C847D"/>
<path d="M91.1425 201.085H92.8553V199.965C92.8553 197.177 94.6209 195.918 97.4842 195.918C98.3153 195.888 99.1442 196.02 99.9244 196.307V198.601H98.9721C97.7421 198.601 96.9287 198.739 96.9287 200.11V201.085H99.726V203.544H96.9287V212.732C96.945 212.912 97.0241 213.08 97.1522 213.208C97.2803 213.336 97.4493 213.415 97.6297 213.431H98.9192V215.751H91.2549V213.431H92.194C92.3726 213.41 92.5389 213.329 92.6661 213.203C92.7933 213.076 92.8739 212.91 92.8949 212.732V203.544H91.1558L91.1425 201.085Z" fill="#8C847D"/>
<path d="M116.562 215.751L111.88 199.016H111.794V213.431H113.778V215.751H106.742V213.431H107.807C108.021 213.401 108.219 213.3 108.367 213.142C108.515 212.985 108.604 212.782 108.62 212.567V199.464C108.604 199.249 108.515 199.046 108.367 198.889C108.219 198.732 108.021 198.63 107.807 198.601H106.742V196.195H115.008L118.711 209.377H118.797L122.52 196.195H130.733V198.601H129.623C129.408 198.63 129.211 198.732 129.063 198.889C128.915 199.046 128.825 199.249 128.809 199.464V212.567C128.825 212.782 128.915 212.985 129.063 213.142C129.211 213.3 129.408 213.401 129.623 213.431H130.714V215.751H122.501V213.431H124.438V199.016H124.352L119.591 215.751H116.562Z" fill="#8C847D"/>
<path d="M133.319 212.317V204.243C133.298 204.065 133.217 203.899 133.09 203.772C132.963 203.645 132.797 203.565 132.618 203.544H131.666V201.085H137.412V211.058C137.412 212.646 138.193 213.095 139.482 213.095C140.546 213.054 141.593 212.817 142.57 212.396V203.544H140.633V201.085H146.657V212.679C146.677 212.863 146.756 213.036 146.882 213.171C147.009 213.307 147.176 213.398 147.358 213.431H148.31V215.751H143.437C142.961 215.751 142.709 215.388 142.597 213.932C141.891 214.606 141.055 215.132 140.141 215.477C139.226 215.823 138.251 215.981 137.274 215.942C135.224 215.942 133.319 215.164 133.319 212.317Z" fill="#8C847D"/>
<path d="M149.6 213.431H150.585C150.763 213.409 150.929 213.328 151.056 213.202C151.183 213.075 151.264 212.91 151.286 212.732V204.295C151.264 204.112 151.185 203.941 151.059 203.806C150.933 203.671 150.767 203.579 150.585 203.544H149.487V201.086H154.506C154.983 201.086 155.293 201.507 155.346 203.208C156.325 202.008 157.476 200.947 159.407 200.947C159.712 200.949 160.015 200.995 160.306 201.086V204.104H159.605C158.141 204.037 156.684 204.343 155.373 204.994V213.431H157.423V215.751H149.6V213.431Z" fill="#8C847D"/>
<path d="M161.681 213.431H162.66C162.839 213.41 163.005 213.33 163.132 213.203C163.259 213.076 163.34 212.91 163.361 212.732V204.295C163.341 204.112 163.262 203.939 163.136 203.804C163.01 203.668 162.843 203.577 162.66 203.544H161.569V201.086H166.581C167.058 201.086 167.368 201.507 167.421 203.208C168.407 202.008 169.551 200.947 171.488 200.947C171.793 200.95 172.096 200.996 172.388 201.086V204.104H171.687C170.223 204.037 168.766 204.343 167.454 204.994V213.431H169.498V215.751H161.681V213.431Z" fill="#8C847D"/>
<path d="M173.141 211.506C173.141 208.428 175.548 207.037 178.941 207.037C179.952 207.02 180.961 207.133 181.943 207.374V205.838C181.943 204.355 181.13 203.656 179.391 203.656C178.765 203.636 178.142 203.742 177.559 203.969C176.976 204.195 176.445 204.537 175.998 204.974H174.12V201.988C176.042 201.18 178.118 200.797 180.204 200.868C184.013 200.868 186.03 202.101 186.03 205.482V212.772C186.056 212.949 186.142 213.111 186.275 213.231C186.408 213.351 186.578 213.422 186.757 213.431H187.544V215.408C186.785 215.806 185.934 215.997 185.078 215.962C183.371 215.962 182.499 215.303 182.135 214.123C181.624 214.744 180.969 215.233 180.228 215.549C179.487 215.864 178.68 215.997 177.876 215.935C175.105 215.916 173.141 214.406 173.141 211.506ZM181.943 212.482V209.351C181.228 209.235 180.505 209.18 179.781 209.186C178.127 209.186 177.136 209.845 177.136 211.335C177.136 212.824 178.002 213.517 179.377 213.517C180.334 213.514 181.254 213.144 181.943 212.482Z" fill="#8C847D"/>
<path d="M190.123 220.286V218.137C191.676 217.7 193.06 216.804 194.091 215.566L189.244 204.361C189.045 203.887 188.768 203.577 188.371 203.577H187.842V201.118H194.957V203.577H193.039L196.207 211.144L198.561 205.423C198.978 204.361 199.117 203.577 197.9 203.577H197.45V201.118H203.924V203.577H203.289C203.056 203.61 202.837 203.709 202.658 203.862C202.478 204.015 202.347 204.216 202.277 204.44L197.457 215.25C196.633 217.282 195.242 219.037 193.449 220.305L190.123 220.286Z" fill="#8C847D"/>
<path d="M5.27514 148.534C9.6925 148.989 12.9989 149.325 46.3275 139.708C58.5931 136.345 71.4139 135.487 84.0206 137.184C98.8796 139.161 107.291 145.225 116.033 145.436C120.265 145.535 127.315 143.821 132.129 141.336C139.013 137.784 144.978 138.509 150.975 140.638C155.73 142.332 161.556 143.274 169.571 141.297C177.585 139.319 181.685 142.206 186.44 143.61C191.194 145.014 194.203 145.667 198.072 144.869C199.573 144.553 202.205 142.931 203.633 141.989C203.692 141.943 203.736 141.881 203.758 141.81C203.781 141.739 203.782 141.663 203.76 141.592C203.739 141.52 203.696 141.457 203.638 141.41C203.58 141.364 203.509 141.336 203.435 141.33C202.112 141.33 199.467 141.264 194.838 141.138C182.677 140.816 183.477 139.161 174.874 139.214C166.271 139.267 164.393 141.119 152.509 138.186C140.626 135.253 129.642 142.213 113.494 140.862C97.3454 139.51 85.1051 131.924 59.1696 134.547C33.2341 137.171 27.1503 140.262 0.758587 142.767C-1.21864 142.938 0.857781 148.079 5.27514 148.534Z" fill="#9BC1E7"/>
</svg>
