<?xml version="1.0" encoding="utf-8"?>
<!-- Generator: Adobe Illustrator 19.2.1, SVG Export Plug-In . SVG Version: 6.00 Build 0)  -->
<svg version="1.1" id="layer" xmlns="http://www.w3.org/2000/svg" xmlns:xlink="http://www.w3.org/1999/xlink" x="0px" y="0px"
	 viewBox="0 0 652 652" style="enable-background:new 0 0 652 652;" xml:space="preserve">
<path d="M253.9,234.9l-0.9,6.7c0,0,0.5,0-22.4,0h-22.6l-0.9-6.7h23.5H253.9 M258,209.3c0,0-1.2-7.2-6.3-5.3c0,0-5.6,2.5-1.8,10.7
	c0,0,0.7-2.6,3.2-2.5c0,0,4.6,0.5,2.3,6.3c0,0-1.8,4-5.3,3.2c0,0-5.1-0.5-5.1-8.1c0,0-3.5,6.7-7.5,6.1c0,0-5.1,0.5-4.9-5.4
	c0,0,0.4-4.4,4-5.1c0,0,4.4-0.5,3.7,3.7c0,0,10.2-8.6,0.9-13.7c0,0-4-1.8-7.4,2.1c0,0,1.8-2.1,1.9-4.9c0,0,1.6-5.1-4.7-8.6l0,0l0,0
	l0,0l0,0c-6.3,3.5-4.7,8.6-4.7,8.6c0.2,2.8,1.9,4.9,1.9,4.9c-3.5-4-7.5-2.1-7.5-2.1c-9.3,5.3,0.9,13.7,0.9,13.7
	c-0.9-4.2,3.7-3.7,3.7-3.7c3.7,0.7,4,5.1,4,5.1c0,6-5.1,5.4-5.1,5.4c-4.4,0.5-7.9-6.1-7.9-6.1c0,7.5-5.1,8.1-5.1,8.1
	c-3.5,0.9-5.3-3.2-5.3-3.2c-2.3-5.8,2.3-6.3,2.3-6.3c2.5-0.2,3.2,2.5,3.2,2.5c3.9-8.2-1.8-10.7-1.8-10.7c-5.1-1.9-6.3,5.3-6.3,5.3
	c-3.3-8.4-9.8-6.3-9.8-6.3c9.8,13.3,13.3,25.9,13.3,25.9h48c0,0,3.3-12.6,13.3-25.9C267.9,203,261.3,200.8,258,209.3 M206.7,247.2
	h24v6.7h-24c0,0-3.3,0-3.3-3.3C203.3,250.5,203.3,247.2,206.7,247.2 M257.8,250.5c0,3.3-3.3,3.3-3.3,3.3h-24v-6.7h24
	C257.8,247.2,257.8,250.5,257.8,250.5"/>
<path d="M37.2,235.4c-5.1,0-5.1-7.2,0-7.2h32.7c5.1,0,5.1,7.2,0,7.2C69.9,235.4,37.2,235.4,37.2,235.4 M42.6,247.2h21.9
	c5.1,0,5.1-7.2,0-7.2H42.6C37.5,240,37.5,247.2,42.6,247.2 M48,258.9h11.2c4.9,0,4.9-7.2,0-7.2H48C43,251.7,43,258.9,48,258.9
	 M34.9,223.7c0,0-5.1-4.4-0.9-14.4c0,0,3.9,5.8,10.5,6.8c0,0,2.8-10.7,10-12.1c0,0-2.6,6.7,4.2,12.3c0,0,6-8.4,13.5-8.4
	c0,0-4.2,4.2-1.8,8.2c0,0,2.3,4.6-0.4,7.5c0,0,4.7,0,8.2-3c0,0,5.1-3,2.8-14.2c0,0-1.2-7.5,10.7-10.3c0,0-13.7-5.8-27.5,3.9
	c0,0-6.7-9.8,7-17.7c0,0-22.8-1.9-32.7,20c0,0-8.4-4.2-2.8-14.5c0,0-15.6,5.8-14.2,24.2C21.3,211.8,21.6,223.7,34.9,223.7"/>
<path d="M159.4,218.3c0,0-2.3-1.4-1.1-4c0,0,0.9-2.8-0.9-5.1c0,0-2.1-2.5-4.6-0.7l-0.2,0.2c0,0,1.2-3.2-2.1-4.6c0,0-2.1-1.2-5.4,1.1
	c0,0-2.1,1.8-4.2-0.4c0,0-2.5-1.8-5.1-0.7c0,0-3,1.2-2.1,4.2l0.2,0.2c-0.4-0.2-2.6-1.9-4.9,0.5c0,0-1.8,1.6-0.7,5.6
	c0,0,0.9,2.5-1.6,3.9c0,0-2.5,1.9-2.3,4.6c0,0,0.2,3.2,3.3,3.3h0.2c0,0-2.8,1.9-1.1,4.9c0,0,1.1,2.1,5.1,2.3c0,0,2.6-0.2,3.2,2.6
	c0,0,1.1,2.8,3.7,3.5c0,0,3.2,0.7,4.2-2.1v-0.4c0,0,0.9,3.3,4.2,2.5c0,0,2.5-0.2,3.9-4.2c0,0,0.7-2.6,3.5-2.3c0,0,3-0.2,4.6-2.5
	c0,0,1.8-2.8-0.7-4.6h-0.2c0,0,3.3,0.2,3.7-3.3C162.2,223.2,162.5,220.7,159.4,218.3 M152.7,224.6c0,0-1.8,6.5-9.5,6.8l0,0
	c0,0-6.7,0.2-9.5-6.8l0,0c0,0-2.3-6.3,3.7-11l0,0c0,0,5.3-4.2,11.6,0l0,0C149.2,213.5,154.8,217.2,152.7,224.6l4.4,1.4L152.7,224.6z
	 M138.7,221.6c0-2.6,2.1-4.7,4.7-4.7c2.6,0,4.7,2.1,4.7,4.7c0,2.6-2.1,4.7-4.7,4.7C140.8,226.2,138.7,224.1,138.7,221.6
	 M179.7,216.9c0,0-1.9-5.8-7.7-4.6c0,0,5.3-2.8,3.3-8.2c0,0-2.6-7.4-10.2-5.6c0,0-3.2,0.4-4.6-0.9l-1.1,1.6l1.1-1.6
	c0,0-1.6-0.9-2.3-4c0,0-0.7-7.7-8.4-7.9c0,0-6.1,0-6.8,5.8c0,0-1.1-5.8-6.7-5.8c0,0-7.7,0.2-8.4,7.9c0,0-0.7,3-2.3,4l0,0
	c0,0-1.4,1.2-4.6,0.9c0,0-7.5-1.8-10.2,5.6c0,0-1.9,5.8,3.5,8.2c0,0-6-0.7-7.5,4.6c0,0-2.3,7.4,4.9,10.5c0,0,2.8,1.6,3.2,3.3l0,0
	c0,0,0.7,1.8-0.5,4.6c0,0-4,6.7,2.1,11.4c0,0,4.9,3.7,8.9-0.7c0,0-2.5,5.4,2.1,8.6c0,0,6.3,4.4,11.6-1.4c0,0,2.3-2.1,4.2-1.9v-3.9
	v3.9c0,0,1.9-0.2,4.2,1.9c0,0,5.1,5.8,11.6,1.4c0,0,4.9-3.5,2.1-8.8c0,0,4.4,4,8.9,0.7c0,0,6.1-4.7,2.1-11.4c0,0-1.2-2.8-0.5-4.6
	l-2.1-0.7l2.1,0.7c0,0,0.4-1.8,3.2-3.3C174.8,227.4,182,224.2,179.7,216.9 M169.7,224.2c0,0-0.9,4.4-5.4,4.2l0,0l0,0l0,0l0,0
	c0.4,0.2,3.7,2.8,1.9,6.5c0,0-2.1,4.6-7.5,3.3c0,0-3.3-0.7-4.2,3c0,0-0.7,5.6-5.6,6.1c0,0-4.4,0.5-5.6-3.9l0,0l0,0l0,0l0,0
	c0,0.2-1.4,4.4-5.6,3.9c0,0-4.9-0.5-5.6-6.1c0,0-0.4-3.3-4.2-3c0,0-5.4,1.1-7.5-3.3c0,0-1.9-4,1.9-6.5l0,0l0,0l0,0l0,0
	c-0.2,0-4.6,0-5.4-4.2c0,0-0.9-4.9,4.2-7.2c0,0,3.2-1.4,1.6-4.9c0,0-2.8-4.9,0.9-8.2c0,0,3.2-3,6.8-0.2l0,0l0,0l0,0l0,0
	c-0.2-0.4-1.4-4.4,2.3-6.5c0,0,4.4-2.5,8.1,1.8c0,0,2.3,2.5,5.1,0c0,0,3.9-4.2,8.1-1.8c0,0,3.9,2.1,2.3,6.5l0,0l0,0l0,0l0,0
	c0.2-0.2,3.7-2.8,6.8,0.2c0,0,3.7,3.3,0.9,8.2c0,0-1.8,3,1.6,4.9C165.7,217,170.8,219.3,169.7,224.2"/>
<path d="M387.5,197.1c-1.2-6-5.3-6.5-7-6.5v2.1c1.8,0,2.3,1.4,2.3,2.1c-0.2,2.1-2.1,2.1-2.1,2.1c-1.2,0-2.1-1.1-2.1-2.1
	c0-1.2,0.9-2.1,1.9-2.3v-2.1c-5.3-0.2-5.1,4.2-5.1,4.2c-1.2,1.1-3.9,1.9-3.9,1.9c-0.9,0.7-0.9,2.1-0.9,2.1c0,0.7,0,1.1,0,0.9
	c4.7-1.9,6-1.1,6-1.1l0.9,0.7c1.2,1.6,1.6,5.1,1.6,5.1c-0.9,6.8-6.7,6.8-5.8,16.6c0.7,15.8,21.9,19.8,21.9,19.8
	c1.2,2.5-1.6,7.7-1.6,7.7c-0.4,0.9-1.1,0.9-3.7,0.4c-1.4-0.2-2.3-0.5-2.3-0.5c-4.4-1.6-2.8,3.2-2.8,3.2h15.9c1.2-4.4-1.8-3-1.8-3
	c-3,1.4-2.6-0.2-2.6-0.2c0.9-4.7,3.2-7.7,3.2-7.7c-37.1-22.4-12.4-29.1-12.4-29.1s-16.8,8.4,20.8,28.9c9.5,5.8,9.8,6,12.8,7.5
	c2.1,1.4,2.6,0.5,2.6,0.5c0.4-0.7-0.7-1.8-0.7-1.8l-8.8-10.9c11.6,7.4,16.6,11.2,16.6,11.2c5.4,2.3,13.5-5.1,3-9.5
	C389.8,214.1,387.5,197.1,387.5,197.1"/>
<path d="M343.9,206.7c0,0-7.7-2.1-13.3,6c0,0-4.6,5.8-5.3,17.7h-4.7c0,0,0.4-7.7,2.3-15.1c0,0,1.2-4.6,2.6-12.3
	c0,0,1.4-6.7-0.7-11.6c0,0-2.6-7.7-7.5-7.4c-4.9-0.4-7.5,7.4-7.5,7.4c-2.1,5.1-0.7,11.6-0.7,11.6c1.4,7.7,2.6,12.3,2.6,12.3
	c2.1,7.4,2.5,15.1,2.5,15.1h-4.7c-0.7-12.1-5.3-17.7-5.3-17.7c-5.6-8.1-13.3-6-13.3-6c-9.6,2.3-9.5,11.7-9.5,11.7
	c-0.2,8.4,4.9,11.2,4.9,11.2c4.4,2.8,9.1,1.9,9.1,1.9c-1.6-1.6-2.5-3-2.5-3c-1.8-3.9,1.6-5.8,1.6-5.8c3.3-1.8,6.1,1.2,6.1,1.2
	c2.6,2.6,3.3,6.3,3.3,6.3h-3.5c-3.2,0-3.2,3.7-3.2,3.7c0,3.7,3.2,3.7,3.2,3.7h3.5c-0.4,3.7-3.9,3.5-3.9,3.5c-3.5,0-5.8-4.6-5.8-4.6
	c-2.5,2.6-1.6,6-1.6,6.1c1.2,6.1,7.4,6,7.4,6c8.9,0,9.3-10.7,9.3-10.7h4.6c-1.1,12.1-6.7,14.2-6.7,14.2c2.5,6.1,9.8,5.8,9.8,5.8
	s7.4,0.4,9.8-5.8c0,0-5.8-2.1-6.7-14.2h4.6c0,0,0.4,10.9,9.3,10.7c0,0,6.1,0.2,7.4-6c0,0,0.9-3.3-1.6-6.1c0,0-2.3,4.6-5.6,4.6
	c0,0-3.5,0.4-3.9-3.5h3.5c0,0,3.2,0,3.2-3.7c0,0,0-3.7-3.2-3.7h-3.5c0,0,0.7-3.9,3.3-6.3c0,0,2.8-3,6.1-1.2c0,0,3.3,1.8,1.6,5.8
	c0,0-0.9,1.4-2.5,3c0,0,4.7,0.9,9.1-1.9c0,0,5.1-2.8,4.9-11.2C353.4,218.4,353.7,209,343.9,206.7"/>
<path d="M28.1,339.6v-36.1c0-1.6-1.6-3.5-3.3-3.5h-4.2v-6.8h28.5v6.8H40v40.1c0,14.5,7.2,18.2,17.7,18.2c10.3,0,17.5-3.5,17.5-18.2
	V300h-9.1v-6.8h25.6v6.8h-4.2c-1.6,0-3.2,1.9-3.2,3.5v36.1c0,18.6-9.5,27.1-27.8,27.1C38.8,366.7,28.1,358.2,28.1,339.6"/>
<path d="M95,359.4h4.4c1.6,0,3.2-1.9,3.2-3.3v-52.5c0-1.6-1.8-3.5-3.2-3.5H95v-6.8h20.3l33.4,53.2h0.4V300H140v-6.8h25.7v6.8h-4.2
	c-1.6,0-3.2,1.9-3.2,3.5V366H148l-35.9-56.6h-0.4v49.9h9.3v6.7H95V359.4z"/>
<path d="M168.8,359.4h5.3c1.8,0,3.2-1.9,3.2-3.3v-52.5c0-1.6-1.6-3.5-3.2-3.5h-5.3v-6.8h28.9v6.8h-5.3c-1.8,0-3.2,1.9-3.2,3.5v52.5
	c0,1.4,1.6,3.3,3.2,3.3h5.3v6.7h-28.9V359.4z"/>
<path d="M207.7,303.5c-0.7-1.8-2.5-3.5-4.2-3.5h-2.5v-6.8h27.8v6.8h-9.1l18.4,53.9h0.2l16.6-47.3c1.6-4.4,0.5-6.8-3.5-6.8h-4.6V293
	h25.4v6.8H270c-2.1,0-3.9,1.6-4.6,3.7l-22.8,62.3h-13L207.7,303.5z"/>
<path d="M275.6,359.4h4.4c1.6,0,3.2-1.9,3.2-3.3v-52.5c0-1.6-1.8-3.5-3.2-3.5h-4.4v-6.8h56.2v19.4h-7.5l-1.2-11.9h-28v24.7h14.2
	l0.9-8.6h7.4v24.5h-7.4l-0.9-8.6h-14.2V359H324l1.2-13.3h7.9V366h-57.4V359.4z"/>
<path d="M364.9,327c11.2,0,15.4-4.2,15.4-13c0-9.3-4.6-13.5-15.4-13.5h-9.8v26.6h9.8V327z M335.5,359.4h4.4c1.6,0,3.2-1.9,3.2-3.3
	v-52.5c0-1.6-1.8-3.5-3.2-3.5h-4.4v-6.8h29.8c16.6,0,27.5,5.8,27.5,20.1c0,10.3-6.5,15.2-16.3,17v0.4c7.4,1.6,11.6,4.6,14.7,16.3
	l2.6,9.6c0.5,1.9,1.9,2.8,3,2.8h3.5v6.7h-17l-4-19.6c-1.9-9.5-5.6-12.3-15.1-12.3h-9.1v25.2h9.3v6.7h-28.9L335.5,359.4L335.5,359.4z
	"/>
<path d="M413.4,363.4c-0.7,0-1.4,1.2-1.6,2.6H404v-21.2h8.2l1.1,8.8c3.7,3.5,7.4,5.4,15.2,5.4c8.4,0,13.8-3.9,13.8-11.9
	c0-9.8-7.4-11-17.9-14c-12.8-3.5-19.1-8.9-19.1-21.2c0-13.1,9.6-19.6,23.1-19.6c7.4,0,11,1.9,13.1,3c0.7,0,1.4-1.2,1.6-2.3h7.5v19.3
	h-8.1l-1.1-7.4c-2.6-2.5-6.1-5.1-13.1-5.1c-7.5,0-12.8,3-12.8,10.9c0,8.6,6.7,10,16.6,12.6c14,3.7,21,8.2,21,21.7
	c0,14-8.6,21.4-24.5,21.4C420.4,366.7,416.2,365,413.4,363.4"/>
<path d="M457,359.4h5.3c1.6,0,3.2-1.9,3.2-3.3v-52.5c0-1.6-1.6-3.5-3.2-3.5H457v-6.8h28.9v6.8h-5.3c-1.8,0-3.2,1.9-3.2,3.5v52.5
	c0,1.4,1.6,3.3,3.2,3.3h5.3v6.7H457V359.4z"/>
<path d="M506.4,359.4h5.1c1.8,0,3.2-1.9,3.2-3.3v-55.7H499l-1.1,15.4h-7.9v-22.6H551v22.6h-7.9l-1.1-15.4h-15.6v55.7
	c0,1.4,1.6,3.3,3.2,3.3h5.1v6.7h-28.5v-6.7H506.4z"/>
<path d="M574,359.4h5.1c1.6,0,3.2-1.9,3.2-3.3v-20.1l-20.3-32.7c-1.2-1.8-2.6-3.2-4.6-3.2h-2.1v-6.8h27v6.8h-8.6l16.3,26.8h0.2
	l12.1-20c2.6-4.4,0.9-6.8-3.3-6.8h-3.3v-6.8h25v6.8h-1.9c-1.9,0-3.5,1.4-4.7,3.3l-19.6,32v20.7c0,1.4,1.6,3.3,3.2,3.3h5.1v6.7H574
	L574,359.4L574,359.4z"/>
<path d="M79,424c0-19.4-9.5-29.1-22.2-29.1c-13,0-22.4,9.8-22.4,29.1c0,19.3,9.5,29.1,22.4,29.1C69.6,452.9,79,443.3,79,424
	 M21.8,423.6c0-24,16.1-37.1,35-37.1s34.8,13.1,34.8,37.1c0,24-16.1,37.1-34.8,37.1C37.9,460.9,21.8,447.8,21.8,423.6"/>
<path d="M92.9,453.4h4.4c1.6,0,3.2-1.9,3.2-3.3v-52.5c0-1.6-1.8-3.5-3.2-3.5h-4.4v-6.8h55.7v20H141l-1.4-12.6h-27v26.3h13.8l0.9-8.9
	h7.2v25.2h-7.2l-0.9-9.3h-13.8v25.2h9.3v6.7H92.9V453.4z"/>
<path d="M173.7,453.4h4.4c1.6,0,3.2-1.9,3.2-3.3v-52.5c0-1.6-1.8-3.5-3.2-3.5h-4.4v-6.8h28.9v6.8h-9.1v25h32.7v-25H217v-6.8h29.1
	v6.8h-4.4c-1.6,0-3.3,1.9-3.3,3.5v52.5c0,1.4,1.8,3.3,3.3,3.3h4.4v6.7H217v-6.7h9.3v-27.1h-32.7v27.1h9.3v6.7h-29.1V453.4z"/>
<path d="M256.9,433.6v-36.1c0-1.6-1.6-3.5-3.3-3.5h-4.2v-6.8h28.5v6.8h-9.1v40.3c0,14.5,7.2,18.2,17.7,18.2
	c10.3,0,17.5-3.5,17.5-18.2v-40.1h-9.1v-6.8h25.6v6.8h-4.2c-1.6,0-3.2,1.9-3.2,3.5v36.1c0,18.6-9.5,27.1-27.8,27.1
	C267.4,460.9,256.9,452.2,256.9,433.6"/>
<path d="M323.8,453.4h4.4c1.6,0,3.2-1.9,3.2-3.3v-52.5c0-1.6-1.8-3.5-3.2-3.5h-4.4v-6.8h30.1v6.8h-10.5v58.7H370l1.2-15.2h8.2v22.6
	H324v-6.7H323.8z"/>
<path d="M382.4,453.4h4.4c1.6,0,3.2-1.9,3.2-3.3v-52.5c0-1.6-1.8-3.5-3.2-3.5h-4.4v-6.8h30.1v6.8H402v58.7h26.6l1.2-15.2h8.2v22.6
	h-55.5v-6.7H382.4z"/>
</svg>
